# xmcd
#
# Track frame offsets: 
#        150
#        25097
#        60889
#        78291
#        96773
#        115825
#        137037
#        165794
#
# Disc length: 2574 seconds
#
# Revision: 0
# Processed by: cddbd v1.5.2PL0 Copyright (c) Steve Scherf et al.
# Submitted via: ExactAudioCopy v0.99pb4
#
DISCID=4f0a0c08
DTITLE=The Jazz Couriers - The Couriers of Jazz
DYEAR=1958
DGENRE=Blues
TTITLE0=Mirage
TTITLE1=After Tea
TTITLE2=Stop the World I Want to Get Off!
TTITLE3=In Salah
TTITLE4=Star Eyes
TTITLE5=The Monk
TTITLE6=My Funny Valentine
TTITLE7=Day In - Day Out
EXTD=
EXTT0=
EXTT1=
EXTT2=
EXTT3=
EXTT4=
EXTT5=
EXTT6=
EXTT7=
PLAYORDER=
